:SAMPLES-PER-SECOND 30
:FULLY-SPECIFIED
:DEGREES
127
root  34.74706214 36.50196406 -14.88329369 9.523645401 -7.281874657 4.668209553
lowerback  -6.888249397 -1.726449966 -1.269029975
upperback  -4.282320023 -1.738129973 -4.03801012
thorax  -0.6466929913 -0.6891975403 -3.56539011
lowerneck  1.672379971 -19.50769997 -13.74779987
upperneck  8.187800407 -27.45350266 15.80589962
head  6.305260181 -13.25450039 4.702079773
lclavicle  0 -4.497500157e-015 -2.743230041e-014
lhumerus  -50.36032486 29.90802193 60.56080246
lradius  0.03664418682 -6.507048965e-006 30.11720085
lwrist  4.824992743e-007 -3.790274832e-007 -29.51339722
lhand  -4.41004756e-031 -36.8030014 -10.61400032
lfingers  90 7.125020027 -90
lthumb  94.7577538 -25.45434248 100.9597633
rclavicle  0 -4.497500157e-015 -2.743230041e-014
rhumerus  -21.03549957 -38.26670456 6.013253212
rradius  -5.16745672e-007 2.214343908e-008 54.73300171
rwrist  -0.0001011603963 -0.001600692281 -168.1289978
rhand  -1.770994413e-031 4.488649845 -5.377150059
rfingers  -90 -7.125020027 -90
rthumb  -83.94758481 -10.39783771 -59.56669466
rfemur  -14.63588238 15.84653187 11.63693333
rtibia  -1.974050999 -2.415492058 22.38153839
rfoot  -0.1347336918 -23.71029091 -34.16296768
rtoes  4.052779221 19.60155716 -101.9255763
lfemur  -9.346516609 -16.84695816 -21.57470703
ltibia  3.081519604 -1.993990183 15.05245876
lfoot  1.573522925 -21.87504768 38.54189682
ltoes  -8.559267937 -18.14408928 -115.7952716
128
root  34.74805637 36.50002367 -14.88106495 9.53335762 -7.308857441 4.669381618
lowerback  -6.898839951 -1.719200015 -1.248569846
upperback  -4.273359776 -1.728659987 -4.055230141
thorax  -0.6323450208 -0.684499979 -3.594660044
lowerneck  1.670920014 -19.48060036 -13.5941
upperneck  8.100839615 -27.3939991 15.71790028
head  6.234809875 -13.23009968 4.676159859
lclavicle  0 -4.497500157e-015 -2.743230041e-014
lhumerus  -50.34690094 29.93889999 60.51160049
lradius  0.03712117299 -6.507048965e-006 30.0918026
lwrist  4.824992743e-007 -3.790274832e-007 -29.604002
lhand  -4.411234421e-031 -36.82360077 -10.76970005
lfingers  90 7.125020027 -90
lthumb  94.80029511 -25.60651718 100.9959929
rclavicle  0 -4.497500157e-015 -2.743230041e-014
rhumerus  -20.42340088 -38.14680099 5.954343319
rradius  -5.16745672e-007 2.214343908e-008 53.78919983
rwrist  -0.0001011603963 -0.001600692281 -167.6369934
rhand  -1.771374495e-031 4.642620087 -5.135449886
rfingers  -90 -7.125020027 -90
rthumb  -83.78197454 -10.61317891 -59.39288799
rfemur  -14.65390778 15.85475731 11.63979816
rtibia  -1.973091364 -2.416739702 22.39436531
rfoot  -0.1360615939 -23.71604156 -34.13912201
rtoes  4.080411244 19.59603984 -102.0079537
lfemur  -9.323931694 -16.82688904 -21.58320618
ltibia  3.107387304 -1.99055326 15.01504993
lfoot  1.585452437 -21.86061287 38.56151199
ltoes  -8.567206252 -18.14044123 -115.8207658
129
root  34.7486541 36.49916461 -14.8795616 9.534985542 -7.324890614 4.670816898
lowerback  -6.917610645 -1.71611011 -1.234910369
upperback  -4.261360168 -1.724670053 -4.062029839
thorax  -0.6100140214 -0.6815297008 -3.609819889
lowerneck  1.643399954 -19.46809959 -13.51669979
upperneck  8.052120209 -27.36520004 15.68869972
head  6.204649925 -13.21640015 4.664360046
lclavicle  0 -4.497500157e-015 -2.743230041e-014
lhumerus  -50.31420135 29.94750023 60.49300003
lradius  0.03755531833 -6.507048965e-006 30.08279991
lwrist  4.824992743e-007 -3.790274832e-007 -29.65570068
lhand  -4.408367143e-031 -36.7737999 -10.77089977
lfingers  90 7.125020027 -90
lthumb  94.77711377 -25.6094499 100.9427949
rclavicle  0 -4.497500157e-015 -2.743230041e-014
rhumerus  -19.81159973 -37.94680023 5.881203175
rradius  -5.16745672e-007 2.214343908e-008 52.74639893
rwrist  -0.0001011603963 -0.001600692281 -167.1419983
rhand  -1.770573686e-031 4.311739922 -5.490880013
rfingers  -90 -7.125020027 -90
rthumb  -84.05217159 -10.29120478 -59.75062016
rfemur  -14.65295792 15.88293457 11.62858105
rtibia  -1.966621041 -2.423580408 22.38960648
rfoot  -0.1355515271 -23.73551941 -34.14967728
rtoes  4.081014721 19.59591891 -102.0097531
lfemur  -9.287322998 -16.80548477 -21.61090469
ltibia  3.133551598 -1.984498978 14.978652
lfoot  1.602652192 -21.86675072 38.58636856
ltoes  -8.562897113 -18.14242202 -115.8069262
130
root  34.75057347 36.4993208 -14.87699343 9.545059204 -7.370815277 4.672260761
lowerback  -6.913319588 -1.709229946 -1.231520057
upperback  -4.252999783 -1.716969967 -4.060349941
thorax  -0.6033719778 -0.6797170043 -3.609450102
lowerneck  1.607820034 -19.51510048 -13.57419968
upperneck  8.075790405 -27.43759727 15.73770046
head  6.243690014 -13.24699974 4.666560173
lclavicle  0 -4.497500157e-015 -2.743230041e-014
lhumerus  -50.29439926 29.9659996 60.48099899
lradius  0.03794415295 -6.507048965e-006 30.06620026
lwrist  4.824992743e-007 -3.790274832e-007 -29.67580032
lhand  -0 -36.75149918 -10.63049984
lfingers  90 7.125020027 -90
lthumb  94.73712608 -25.4723017 100.9061681
rclavicle  0 -4.497500157e-015 -2.743230041e-014
rhumerus  -19.25219917 -38.01800156 5.801120281
rradius  -5.16745672e-007 2.214343908e-008 51.76269913
rwrist  -0.0001011603963 -0.001600692281 -166.5330048
rhand  -1.770505954e-031 4.282569885 -5.357419968
rfingers  -90 -7.125020027 -90
rthumb  -83.99145156 -10.40512181 -59.76701069
rfemur  -14.65928841 15.87384796 11.60795689
rtibia  -1.95713973 -2.455830574 22.37332726
rfoot  -0.1298875213 -23.80047035 -34.10726547
rtoes  4.062334294 19.59965373 -101.9540596
lfemur  -9.266834259 -16.75553894 -21.63767242
ltibia  3.152280569 -1.977680445 14.95100594
lfoot  1.606457591 -21.86724854 38.58141327
ltoes  -8.562313703 -18.1426901 -115.8050526
131
root  34.75194616 36.49981641 -14.87415644 9.555360794 -7.402649879 4.674412727
lowerback  -6.915530205 -1.707319975 -1.20835042
upperback  -4.243509769 -1.716040015 -4.06766367
thorax  -0.5933619738 -0.6762340069 -3.631860018
lowerneck  1.57269001 -19.49869919 -13.47990036
upperneck  8.050800323 -27.40299988 15.69120026
head  6.216450214 -13.22920036 4.647779942
lclavicle  0 -4.497500157e-015 -2.743230041e-014
lhumerus  -50.27059937 29.97039986 60.45940018
lradius  0.03828521073 -6.507048965e-006 30.06154823
lwrist  4.824992743e-007 -3.790274832e-007 -29.65070152
lhand  -4.405753553e-031 -36.72829819 -10.61279964
lfingers  90 7.125020027 -90
lthumb  94.72258146 -25.45578603 100.8797597
rclavicle  0 -4.497500157e-015 -2.743230041e-014
rhumerus  -18.66580009 -38.22799683 5.809310913
rradius  -5.16745672e-007 2.214343908e-008 50.57519913
rwrist  -0.0001011603963 -0.001600692281 -166.4669952
rhand  -1.770363921e-031 4.220739841 -5.305339813
rfingers  -90 -7.125020027 -90
rthumb  -83.98096646 -10.44725776 -59.82281974
rfemur  -14.66713238 15.87144852 11.59644604
rtibia  -1.952645779 -2.467382193 22.36372566
rfoot  -0.1182521433 -23.81659126 -34.0702858
rtoes  4.042548124 19.60359004 -101.8950806
lfemur  -9.296283722 -16.68364906 -21.63397217
ltibia  3.142415524 -1.974443197 14.98034763
lfoot  1.607246757 -21.90454292 38.53239441
ltoes  -8.556124848 -18.14553253 -115.7851788
132
root  34.75443322 36.50129724 -14.87211843 9.579644203 -7.458762646 4.646588802
lowerback  -6.898029804 -1.697819948 -1.235549688
upperback  -4.236839771 -1.702759981 -4.075049877
thorax  -0.5944002271 -0.6722017527 -3.62135005
lowerneck  1.58228004 -19.47610092 -13.37360001
upperneck  7.960340023 -27.35479927 15.63710022
head  6.156650066 -13.21070004 4.635099888
lclavicle  0 -4.497500157e-015 -2.743230041e-014
lhumerus  -50.25780106 29.97489929 60.43560028
lradius  0.03857602552 -6.507048965e-006 30.05909157
lwrist  4.824992743e-007 -3.790274832e-007 -29.71369934
lhand  -4.406338952e-031 -36.73849869 -10.71860027
lfingers  90 7.125020027 -90
lthumb  94.74953527 -25.55935368 100.900262
rclavicle  0 -4.497500157e-015 -2.743230041e-014
rhumerus  -18.15329742 -38.28749466 5.758749008
rradius  -5.16745672e-007 2.214343908e-008 49.58499908
rwrist  -0.0001011603963 -0.001600692281 -165.9649963
rhand  -1.770614684e-031 4.329299927 -5.114290237
rfingers  -90 -7.125020027 -90
rthumb  -83.85449868 -10.61727343 -59.69842184
rfemur  -14.6925087 15.87071133 11.59981632
rtibia  -1.932875752 -2.440999985 22.33907127
rfoot  -0.08192262053 -23.77740479 -33.99930191
rtoes  4.025422522 19.6069808 -101.8440415
lfemur  -9.357818604 -16.68813705 -21.59051323
ltibia  3.09857893 -1.982713938 15.06150627
lfoot  1.628513575 -21.92570877 38.59149551
ltoes  -8.570316176 -18.13901091 -115.8307547
133
root  34.75632855 36.50206919 -14.86866268 9.5916996 -7.493549347 4.660756588
lowerback  -6.875679493 -1.687039971 -1.212310314
upperback  -4.228240013 -1.692430019 -4.074460983
thorax  -0.598304987 -0.6693350077 -3.631380081
lowerneck  1.574069977 -19.48040009 -13.32450008
upperneck  7.908299923 -27.35299873 15.62860012
head  6.133319855 -13.21080017 4.629399776
lclavicle  0 -4.497500157e-015 -2.743230041e-014
lhumerus  -50.23830032 30.01659966 60.40679932
lradius  0.03881413117 -6.507048965e-006 30.04710197
lwrist  4.824992743e-007 -3.790274832e-007 -29.74720001
lhand  -4.408200441e-031 -36.77090073 -10.72990036
lfingers  90 7.125020027 -90
lthumb  94.76712942 -25.56932825 100.9359658
rclavicle  0 -4.497500157e-015 -2.743230041e-014
rhumerus  -17.77980042 -38.0673027 5.84558773
rradius  -5.16745672e-007 2.214343908e-008 48.78390121
rwrist  -0.0001011603963 -0.001600692281 -165.5570068
rhand  -1.770409408e-031 4.240640163 -4.992919922
rfingers  -90 -7.125020027 -90
rthumb  -83.81582689 -10.71817173 -59.77392075
rfemur  -14.71993542 15.87015152 11.57117558
rtibia  -1.93283689 -2.461647511 22.35887337
rfoot  -0.08575887233 -23.80504608 -33.96212769
rtoes  4.030930171 19.60589197 -101.8604549
lfemur  -9.325083733 -16.62810516 -21.63485527
ltibia  3.134253502 -1.964166045 14.99937916
lfoot  1.637171268 -21.94705009 38.59444046
ltoes  -8.606805488 -18.12218031 -115.9480143
